<?xml version="1.0" encoding="utf-8"?>
<!-- Generator: Adobe Illustrator 25.2.2, SVG Export Plug-In . SVG Version: 6.00 Build 0)  -->
<svg version="1.1" id="Layer_1" xmlns="http://www.w3.org/2000/svg" xmlns:xlink="http://www.w3.org/1999/xlink" x="0px" y="0px"
	 viewBox="0 0 539 231" style="enable-background:new 0 0 539 231;" xml:space="preserve">
<style type="text/css">
	.st0{fill:#0081C8;}
	.st1{fill:#EE2E4E;}
	.st2{fill:#00A54F;}
	.st3{fill:#FBB131;}
	.st4{fill:#231F20;}
	.st5{fill:#002361;}
</style>
<g>
	<path id="XMLID_48_" class="st0" d="M348.9,133.1c0-17.6-14.3-31.9-31.9-31.9c-17.6,0-31.9,14.3-31.9,31.9
		c0,17.6,14.3,31.9,31.9,31.9c0.9,0,1.9,0,2.8-0.1c-0.1-0.8-0.1-1.6-0.1-2.6c0-0.9,0-1.9,0.1-2.8c-0.9,0.1-1.9,0.1-2.8,0.1
		c-14.7,0-26.6-11.9-26.6-26.6c0-14.7,11.9-26.6,26.6-26.6c14.7,0,26.6,11.9,26.6,26.6c0,11.8-7.7,21.9-18.3,25.2
		c-0.2,1.3-0.4,2.6-0.4,4c0,0.6,0,1.1,0,1.6C338.8,160.4,348.9,147.9,348.9,133.1"/>
	<path id="XMLID_49_" class="st1" d="M487.2,133.1c0,17.6-14.3,31.9-31.9,31.9c-16.7,0-30.4-12.9-31.8-29.1c1.9,0.2,3.7,0.6,5.5,1.2
		c1.9,12.9,13,22.7,26.3,22.7c14.7,0,26.6-11.9,26.6-26.6c0-14.7-11.9-26.6-26.6-26.6c-14.1,0-25.7,11-26.5,24.9
		c-1.8-0.5-3.5-0.7-5.3-0.9c1.3-16.5,15.1-29.3,31.8-29.3C472.9,101.2,487.2,115.4,487.2,133.1"/>
	<path id="XMLID_52_" class="st2" d="M447.3,163.9c-0.8,13.9-12.4,24.9-26.5,24.9c-14.7,0-26.6-11.9-26.6-26.6
		c0-11.8,7.7-21.9,18.3-25.2c0.2-1.3,0.2-2.6,0.2-4c0-0.6,0-1.1,0-1.6c-13.8,3.5-23.8,16-23.8,30.9c0,17.6,14.3,31.9,31.9,31.9
		c16.8,0,30.5-13,31.8-29.3C450.7,164.6,448.9,164.4,447.3,163.9 M420.8,135.7c13.3,0,24.4,9.8,26.3,22.7c1.8,0.6,3.6,0.9,5.5,1.2
		c-1.4-16.4-15.1-29.1-31.8-29.1c-0.9,0-1.9,0-2.8,0.1c0.1,0.8,0.1,1.6,0.1,2.6c0,0.9,0,1.9-0.1,2.8
		C418.9,135.8,419.8,135.7,420.8,135.7"/>
	<path id="XMLID_55_" class="st3" d="M383.4,164.8c-1.3,16.5-15.1,29.3-31.8,29.3c-17.6,0-31.9-14.3-31.9-31.9
		c0-14.8,10.2-27.3,23.8-30.9c0,0.6,0,1.1,0,1.6c0,1.4-0.1,2.7-0.4,4c-10.6,3.5-18.3,13.4-18.3,25.2c0,14.7,11.9,26.6,26.6,26.6
		c14.1,0,25.7-11,26.5-24.9C379.9,164.3,381.6,164.7,383.4,164.8 M348.8,135.8c0.1-0.9,0.1-1.9,0.1-2.8c0-0.8,0-1.8-0.1-2.6
		c0.9-0.1,1.9-0.1,2.8-0.1c16.7,0,30.4,12.7,31.8,29.1c-1.9-0.2-3.7-0.6-5.5-1.2c-1.9-12.9-13-22.7-26.3-22.7
		C350.6,135.7,349.7,135.7,348.8,135.8"/>
	<path id="XMLID_58_" class="st4" d="M386.2,159.6c-13.3,0-24.4-9.8-26.3-22.7c-1.8-0.6-3.6-0.9-5.5-1.2
		c1.4,16.4,15.1,29.1,31.8,29.1c0.9,0,1.9,0,2.8-0.1c-0.1-0.8-0.1-1.6-0.1-2.6c0-0.9,0-1.9,0.1-2.8
		C388.1,159.6,387.1,159.6,386.2,159.6 M386.2,101.1c-16.7,0-30.5,13-31.8,29.3c1.8,0.1,3.5,0.5,5.3,0.9
		c0.8-13.9,12.4-24.9,26.5-24.9c14.7,0,26.5,11.9,26.5,26.6c0,11.8-7.7,21.9-18.3,25.2c-0.2,1.3-0.4,2.6-0.4,4c0,0.6,0,1.1,0,1.6
		c13.8-3.5,23.8-16,23.8-30.9C418.1,115.4,403.7,101.1,386.2,101.1"/>
	<polygon id="XMLID_59_" class="st5" points="252.3,79.6 245.6,79.6 245.6,44.3 235.9,44.3 235.9,38.1 262,38.1 262,44.3 
		252.3,44.3 	"/>
	<polygon id="XMLID_60_" class="st5" points="336.1,79.6 328.2,79.6 318.3,61.7 314.5,67 314.5,79.6 307.9,79.6 307.9,38.2 
		314.5,38.2 314.5,56.8 314.6,56.8 327.3,38.1 334.9,38.1 322.7,56.1 	"/>
	<polygon id="XMLID_61_" class="st5" points="358.6,79.6 351.9,79.6 351.9,61.7 340.9,38.1 347.8,38.1 355.2,54.3 355.4,54.3 
		362.8,38.1 369.7,38.1 358.7,61.7 358.7,79.6 	"/>
	<path id="XMLID_62_" class="st5" d="M440.9,79.6h-23.3v-6l0.1-0.1l15.4-19.9c0.7-0.9,1.3-2,1.3-3.9c0-3.4-2.6-5.4-5-5.4
		c-1.5,0-2.8,0.5-3.7,1.4c-0.9,0.9-1.5,2.5-1.6,4.7v0.4h-6.4v-0.4c0-3.5,1.3-6.9,3.4-9.1c2.1-2.2,4.8-3.4,7.9-3.4
		c3.5,0,6.4,1.2,8.5,3.4c2.2,2.2,3.3,5.1,3.3,8.6c0,2.9-0.8,5.3-2.9,7.9l-11.7,15.2l0.1,0.1h14.6L440.9,79.6L440.9,79.6z"/>
	<path id="XMLID_63_" class="st5" d="M505.3,79.6h-23.3v-6l0.1-0.1l15.4-19.9c0.7-0.9,1.3-2,1.3-3.9c0-3.4-2.7-5.4-5-5.4
		c-1.5,0-2.8,0.5-3.7,1.4c-0.9,0.9-1.5,2.5-1.6,4.7v0.4h-6.4v-0.4c0-3.5,1.3-6.9,3.4-9.1c2.1-2.2,4.8-3.4,7.9-3.4
		c3.6,0,6.4,1.2,8.5,3.4c2.2,2.2,3.3,5.1,3.3,8.6c0,2.9-0.8,5.3-2.9,7.9l-11.7,15.2l0.1,0.1h14.6V79.6L505.3,79.6z"/>
	<path id="XMLID_66_" class="st5" d="M387.4,44.3c-3.9,0-6.7,2.9-6.7,6.9v15c0,4.3,2.7,7.2,6.7,7.2c4,0,6.7-2.9,6.7-7.2v-15
		C394.1,47.1,391.3,44.3,387.4,44.3 M387.4,79.9c-7.6,0-13-5.3-13-12.6V50.2c0-7.4,5.4-12.5,13-12.5c7.7,0,13,5.1,13,12.5v17.1
		C400.4,74.6,394.9,79.9,387.4,79.9"/>
	<path id="XMLID_69_" class="st5" d="M282.8,44.3c-3.9,0-6.7,2.9-6.7,6.9v15c0,4.3,2.7,7.2,6.7,7.2s6.7-2.9,6.7-7.2v-15
		C289.5,47.1,286.7,44.3,282.8,44.3 M282.8,79.9c-7.6,0-13-5.3-13-12.6V50.2c0-7.4,5.4-12.5,13-12.5c7.7,0,13,5.1,13,12.5v17.1
		C295.8,74.6,290.3,79.9,282.8,79.9"/>
	<path id="XMLID_72_" class="st5" d="M462,44.3c-4.3,0-5.1,3.3-5.1,6.1v16.9c0,4.1,1.8,6.1,5.1,6.1c3.5,0,5.1-2,5.1-6.1V50.4
		C467.1,47.6,466.3,44.3,462,44.3 M462,79.9c-4.3,0-11.6-2.6-11.6-12v-18c0-7.2,4.7-12,11.6-12s11.6,4.8,11.6,12v18
		C473.5,77.3,466.3,79.9,462,79.9"/>
	<path id="XMLID_75_" class="st5" d="M525,44.3c-4.3,0-5.1,3.3-5.1,6.1v16.9c0,4.1,1.6,6.1,5.1,6.1c3.5,0,5.1-2,5.1-6.1V50.4
		C530.2,47.6,529.4,44.3,525,44.3 M525,79.9c-4.3,0-11.6-2.6-11.6-12v-18c0-7.2,4.7-12,11.6-12c6.9,0,11.6,4.8,11.6,12v18
		C536.6,77.3,529.4,79.9,525,79.9"/>
</g>
<g>
	
		<rect id="XMLID_3_" x="173.2" y="87.4" transform="matrix(0.5 -0.866 0.866 0.5 7.1112 207.9779)" class="st5" width="20.9" height="20.9"/>
	<polygon id="XMLID_4_" class="st5" points="183.6,48.3 183.6,48.3 183.6,69.2 204.5,69.2 204.5,48.3 	"/>
	
		<rect id="XMLID_5_" x="155" y="204.5" transform="matrix(0.866 -0.5 0.5 0.866 -81.5034 112.5564)" class="st5" width="28.6" height="7.7"/>
	<rect id="XMLID_6_" x="218.9" y="101.7" class="st5" width="7.7" height="28.6"/>
	
		<rect id="XMLID_7_" x="194.1" y="165.5" transform="matrix(0.5001 -0.866 0.866 0.5001 -42.449 265.0611)" class="st5" width="28.6" height="7.7"/>
	<polygon id="XMLID_8_" class="st5" points="140.8,179.7 140.8,179.7 140.8,208.3 148.4,208.3 148.4,179.7 	"/>
	
		<rect id="XMLID_9_" x="170.8" y="176.2" transform="matrix(0.7071 -0.7071 0.7071 0.7071 -76.0639 183.6425)" class="st5" width="25.6" height="14.8"/>
	
		<rect id="XMLID_10_" x="170.8" y="119" transform="matrix(0.7071 -0.7071 0.7071 0.7071 -35.592 166.8785)" class="st5" width="25.6" height="14.8"/>
	<polygon id="XMLID_11_" class="st5" points="169.3,158.9 169.3,158.9 155,155 148.4,179.8 162.7,183.6 	"/>
	
		<rect id="XMLID_12_" x="195.6" y="133.3" transform="matrix(0.2588 -0.9659 0.9659 0.2588 18.6049 305.6235)" class="st5" width="25.6" height="14.8"/>
	
		<rect id="XMLID_13_" x="195.6" y="76" transform="matrix(0.2588 -0.9659 0.9659 0.2588 73.8881 263.1701)" class="st5" width="25.6" height="14.8"/>
	
		<rect id="XMLID_14_" x="161.9" y="60.2" transform="matrix(0.2588 -0.9659 0.9659 0.2588 54.9492 217.6156)" class="st5" width="14.8" height="25.6"/>
	<rect id="XMLID_15_" x="56" y="56" class="st5" width="20.9" height="20.9"/>
	
		<rect id="XMLID_16_" x="16.9" y="66.4" transform="matrix(0.866 -0.5 0.5 0.866 -34.7507 23.9814)" class="st5" width="20.9" height="20.9"/>
	
		<rect id="XMLID_17_" x="165.5" y="9.3" transform="matrix(0.5 -0.866 0.866 0.5 64.2785 158.4105)" class="st5" width="7.7" height="28.6"/>
	
		<rect id="XMLID_18_" x="48.4" y="19.7" transform="matrix(0.866 -0.5 0.5 0.866 -3.3714 34.4821)" class="st5" width="28.6" height="7.7"/>
	<rect id="XMLID_19_" x="101.8" y="5.4" class="st5" width="28.6" height="7.7"/>
	
		<rect id="XMLID_20_" x="155.1" y="48.3" transform="matrix(0.866 -0.5 0.5 0.866 -3.3614 91.6639)" class="st5" width="28.6" height="7.7"/>
	
		<rect id="XMLID_21_" x="133.4" y="10.7" transform="matrix(0.2588 -0.9659 0.9659 0.2588 81.6123 153.3925)" class="st5" width="14.8" height="25.6"/>
	
		<rect id="XMLID_22_" x="83.8" y="39.3" transform="matrix(0.2588 -0.9659 0.9659 0.2588 17.2783 126.695)" class="st5" width="14.8" height="25.6"/>
	<polygon id="XMLID_23_" class="st5" points="126.5,48.3 126.5,48.3 130.3,62.5 155,55.9 151.2,41.6 	"/>
	
		<rect id="XMLID_24_" x="78.4" y="16.1" transform="matrix(0.9659 -0.2588 0.2588 0.9659 -2.982 24.4112)" class="st5" width="25.6" height="14.8"/>
	
		<rect id="XMLID_25_" x="28.9" y="44.7" transform="matrix(0.9659 -0.2588 0.2588 0.9659 -12.0647 12.558)" class="st5" width="25.6" height="14.8"/>
	
		<rect id="XMLID_26_" x="44.8" y="78.4" transform="matrix(0.9659 -0.2588 0.2588 0.9659 -21.8339 16.6094)" class="st5" width="14.8" height="25.6"/>
	
		<rect id="XMLID_27_" x="87.3" y="173.1" transform="matrix(0.866 -0.5 0.5 0.866 -78.6836 73.4871)" class="st5" width="20.9" height="20.9"/>
	
		<rect id="XMLID_28_" x="116" y="201.7" transform="matrix(0.5 -0.866 0.866 0.5 -120.4899 215.6049)" class="st5" width="20.9" height="20.9"/>
	<rect id="XMLID_29_" x="5.4" y="101.6" class="st5" width="7.7" height="28.6"/>
	
		<rect id="XMLID_30_" x="58.8" y="194.1" transform="matrix(0.5 -0.866 0.866 0.5 -149.1367 158.3996)" class="st5" width="7.7" height="28.6"/>
	
		<rect id="XMLID_31_" x="19.7" y="155" transform="matrix(0.866 -0.5 0.5 0.866 -81.5039 34.4372)" class="st5" width="7.7" height="28.6"/>
	<polygon id="XMLID_32_" class="st5" points="48.3,105.5 48.3,105.5 23.6,91.2 19.8,97.8 44.5,112.1 	"/>
	<polygon id="XMLID_33_" class="st5" points="34,151.2 27.4,126.4 13.1,130.2 19.8,154.9 	"/>
	
		<rect id="XMLID_34_" x="65.7" y="156.5" transform="matrix(0.9659 -0.2588 0.2588 0.9659 -41.3263 24.678)" class="st5" width="14.8" height="25.6"/>
	
		<rect id="XMLID_35_" x="40.9" y="113.6" transform="matrix(0.7071 -0.7071 0.7071 0.7071 -75.1923 71.1884)" class="st5" width="14.8" height="25.6"/>
	
		<rect id="XMLID_36_" x="40.9" y="170.8" transform="matrix(0.7071 -0.7071 0.7071 0.7071 -115.6537 87.9387)" class="st5" width="14.8" height="25.6"/>
	
		<rect id="XMLID_37_" x="90.4" y="199.3" transform="matrix(0.7071 -0.7071 0.7071 0.7071 -121.3678 131.2866)" class="st5" width="14.8" height="25.6"/>
	
		<rect id="XMLID_38_" x="113.7" y="176.2" transform="matrix(0.7071 -0.7071 0.7071 0.7071 -92.765 143.1968)" class="st5" width="25.6" height="14.8"/>
	
		<rect id="XMLID_39_" x="173.2" y="144.5" transform="matrix(0.5 -0.866 0.866 0.5 -42.3773 236.5266)" class="st5" width="20.9" height="20.9"/>
	
		<rect id="XMLID_40_" x="144.6" y="194" transform="matrix(0.5 -0.866 0.866 0.5 -91.8753 236.5052)" class="st5" width="28.6" height="7.7"/>
	
		<rect id="XMLID_41_" x="194.1" y="108.2" transform="matrix(0.5001 -0.866 0.866 0.5001 7.1164 236.4461)" class="st5" width="28.6" height="7.7"/>
	<polygon id="XMLID_42_" class="st5" points="126.5,27.3 105.5,27.3 105.5,48.2 126.4,48.2 126.4,27.3 	"/>
	<rect id="XMLID_43_" x="151.2" y="34" class="st5" width="28.6" height="7.7"/>
	<polygon id="XMLID_44_" class="st5" points="80.8,33.9 52.1,33.9 52.1,41.7 80.7,41.7 80.7,33.9 	"/>
	
		<rect id="XMLID_45_" x="37.9" y="144.6" transform="matrix(0.866 -0.5 0.5 0.866 -71.0343 44.9347)" class="st5" width="20.9" height="20.9"/>
	
		<rect id="XMLID_46_" x="19.8" y="97.8" transform="matrix(0.866 -0.5 0.5 0.866 -52.8695 26.8095)" class="st5" width="7.7" height="28.6"/>
	
		<rect id="XMLID_47_" x="69.2" y="183.6" transform="matrix(0.866 -0.5 0.5 0.866 -89.1497 63.0461)" class="st5" width="7.7" height="28.6"/>
	<polygon id="XMLID_76_" class="st5" points="196.5,197.1 199,197.1 199,203.3 199.8,203.3 199.8,197.1 202.2,197.1 202.2,196.6 
		196.6,196.6 196.6,197.1 	"/>
	<polygon id="XMLID_77_" class="st5" points="208.1,196.5 206.2,201.3 206.1,201.3 203.9,196.5 203,196.5 203,203.3 203.6,203.3 
		203.6,198 205.5,202.3 206.4,202.3 208.1,197.9 208.2,197.9 208.2,203.4 208.9,203.4 208.9,196.6 208.1,196.6 	"/>
</g>
<image style="overflow:visible;" width="208" height="68" xlink:href="6A552543.jpg"  transform="matrix(1 0 0 1 3 376)">
</image>
</svg>
